<svg width="200" height="120" viewBox="0 0 200 120" xmlns="http://www.w3.org/2000/svg">
  <defs>
    <linearGradient id="gradient1" x1="0%" y1="0%" x2="100%" y2="100%">
      <stop offset="0%" style="stop-color:#2563eb;stop-opacity:1" />
      <stop offset="100%" style="stop-color:#1e40af;stop-opacity:1" />
    </linearGradient>
    <linearGradient id="gradient2" x1="0%" y1="0%" x2="100%" y2="100%">
      <stop offset="0%" style="stop-color:#059669;stop-opacity:1" />
      <stop offset="100%" style="stop-color:#047857;stop-opacity:1" />
    </linearGradient>
    <filter id="shadow" x="-20%" y="-20%" width="140%" height="140%">
      <feDropShadow dx="2" dy="2" stdDeviation="3" flood-color="#000000" flood-opacity="0.2"/>
    </filter>
  </defs>
  
  <!-- Background circle -->
  <circle cx="40" cy="40" r="35" fill="url(#gradient1)" filter="url(#shadow)"/>
  
  <!-- Soil layers representation -->
  <rect x="20" y="55" width="40" height="8" fill="#8b5a2b" opacity="0.8"/>
  <rect x="20" y="47" width="40" height="8" fill="#a0522d" opacity="0.8"/>
  <rect x="20" y="39" width="40" height="8" fill="#cd853f" opacity="0.8"/>
  
  <!-- Laboratory equipment (cylinder) -->
  <rect x="32" y="25" width="16" height="20" fill="#e5e7eb" stroke="#6b7280" stroke-width="2" rx="2"/>
  <rect x="34" y="27" width="12" height="16" fill="url(#gradient2)" opacity="0.7"/>
  
  <!-- Measurement marks -->
  <line x1="48" y1="30" x2="52" y2="30" stroke="#374151" stroke-width="1"/>
  <line x1="48" y1="35" x2="52" y2="35" stroke="#374151" stroke-width="1"/>
  <line x1="48" y1="40" x2="52" y2="40" stroke="#374151" stroke-width="1"/>
  
  <!-- Company name -->
  <text x="90" y="30" font-family="Arial, sans-serif" font-size="24" font-weight="bold" fill="#1e40af">
    Ev.C.S
  </text>
  
  <!-- Subtitle -->
  <text x="90" y="48" font-family="Arial, sans-serif" font-size="12" fill="#6b7280">
    LABORATÓRIO GEOTÉCNICO
  </text>
  
  <!-- Tagline -->
  <text x="90" y="62" font-family="Arial, sans-serif" font-size="10" fill="#9ca3af">
    Ensaios • Análises • Soluções
  </text>
  
  <!-- Technical elements -->
  <circle cx="170" cy="25" r="3" fill="#2563eb" opacity="0.6"/>
  <circle cx="180" cy="35" r="2" fill="#059669" opacity="0.6"/>
  <circle cx="175" cy="45" r="2.5" fill="#dc2626" opacity="0.6"/>
  
  <!-- Bottom accent line -->
  <line x1="90" y1="75" x2="185" y2="75" stroke="url(#gradient1)" stroke-width="2"/>
</svg>